{
    "asset" : {
        "generator" : "Khronos glTF Blender I/O v1.1.45",
        "version" : "2.0"
    },
    "scene" : 0,
    "scenes" : [
        {
            "name" : "Scene",
            "nodes" : [
                3,
                9
            ]
        }
    ],
    "nodes" : [
        {
            "name" : "Node",
            "translation" : [
                -3.814697265625e-06,
                0,
                0
            ]
        },
        {
            "children" : [
                0
            ],
            "name" : "71585a581d8e4c879ab850bc93b2099e.obj.cleaner.gles",
            "translation" : [
                -44.63119125366211,
                -0.008694502525031567,
                8.582923889160156
            ]
        },
        {
            "children" : [
                1
            ],
            "name" : "RootNode (model correction matrix)"
        },
        {
            "children" : [
                2
            ],
            "name" : "RootNode (gltf orientation matrix)",
            "scale" : [
                7.2817463874816895,
                7.2817463874816895,
                7.2817463874816895
            ]
        },
        {
            "mesh" : 0,
            "name" : "Object_3"
        },
        {
            "mesh" : 1,
            "name" : "Object_4.001"
        },
        {
            "mesh" : 2,
            "name" : "Object_5"
        },
        {
            "children" : [
                4,
                5,
                6
            ],
            "name" : "Glass_Table.obj.cleaner.materialmerger.gles"
        },
        {
            "children" : [
                7
            ],
            "name" : "RootNode (model correction matrix).001"
        },
        {
            "children" : [
                8
            ],
            "name" : "RootNode (gltf orientation matrix).001",
            "scale" : [
                7.2817463874816895,
                7.2817463874816895,
                7.2817463874816895
            ]
        }
    ],
    "materials" : [
        {
            "alphaMode" : "BLEND",
            "doubleSided" : true,
            "emissiveFactor" : [
                0,
                0,
                0
            ],
            "name" : "Table_1",
            "occlusionTexture" : {
                "index" : 0,
                "texCoord" : 0
            },
            "pbrMetallicRoughness" : {
                "baseColorFactor" : [
                    0.6012219786643982,
                    0.6325820088386536,
                    0.6399999856948853,
                    0.20000000298023224
                ],
                "metallicFactor" : 0.44484850764274597,
                "roughnessFactor" : 0.09454544633626938
            }
        },
        {
            "doubleSided" : true,
            "emissiveFactor" : [
                0,
                0,
                0
            ],
            "name" : "Table_2",
            "pbrMetallicRoughness" : {
                "baseColorFactor" : [
                    0.047807998955249786,
                    0.05423799902200699,
                    0.05012400075793266,
                    1
                ],
                "metallicFactor" : 0,
                "roughnessFactor" : 1
            }
        },
        {
            "alphaMode" : "BLEND",
            "doubleSided" : true,
            "emissiveFactor" : [
                0,
                0,
                0
            ],
            "name" : "Table_3",
            "pbrMetallicRoughness" : {
                "baseColorFactor" : [
                    0.3020299971103668,
                    0.37424901127815247,
                    0.39668598771095276,
                    0.4000000059604645
                ],
                "metallicFactor" : 0,
                "roughnessFactor" : 1
            }
        }
    ],
    "meshes" : [
        {
            "name" : "Mesh_0.001",
            "primitives" : [
                {
                    "attributes" : {
                        "POSITION" : 0,
                        "NORMAL" : 1,
                        "TEXCOORD_0" : 2
                    },
                    "indices" : 3,
                    "material" : 0
                }
            ]
        },
        {
            "name" : "Mesh_1",
            "primitives" : [
                {
                    "attributes" : {
                        "POSITION" : 4,
                        "NORMAL" : 5
                    },
                    "indices" : 6,
                    "material" : 1
                }
            ]
        },
        {
            "name" : "Mesh_2",
            "primitives" : [
                {
                    "attributes" : {
                        "POSITION" : 7,
                        "NORMAL" : 8
                    },
                    "indices" : 9,
                    "material" : 2
                }
            ]
        }
    ],
    "textures" : [
        {
            "source" : 0
        }
    ],
    "images" : [
        {
            "bufferView" : 4,
            "mimeType" : "image/png",
            "name" : "Table_1_metallicRoughness"
        }
    ],
    "accessors" : [
        {
            "bufferView" : 0,
            "componentType" : 5126,
            "count" : 32,
            "max" : [
                80.9769058227539,
                1.016364336013794,
                80.9769287109375
            ],
            "min" : [
                -80.9769058227539,
                1.0163010358810425,
                -80.9769287109375
            ],
            "type" : "VEC3"
        },
        {
            "bufferView" : 1,
            "componentType" : 5126,
            "count" : 32,
            "type" : "VEC3"
        },
        {
            "bufferView" : 2,
            "componentType" : 5126,
            "count" : 32,
            "type" : "VEC2"
        },
        {
            "bufferView" : 3,
            "componentType" : 5123,
            "count" : 90,
            "type" : "SCALAR"
        },
        {
            "bufferView" : 5,
            "componentType" : 5126,
            "count" : 3332,
            "max" : [
                86.83747863769531,
                0.5758514404296875,
                86.84191131591797
            ],
            "min" : [
                -89.4365234375,
                -113.37301635742188,
                -89.4321517944336
            ],
            "type" : "VEC3"
        },
        {
            "bufferView" : 6,
            "componentType" : 5126,
            "count" : 3332,
            "type" : "VEC3"
        },
        {
            "bufferView" : 7,
            "componentType" : 5123,
            "count" : 19704,
            "type" : "SCALAR"
        },
        {
            "bufferView" : 8,
            "componentType" : 5126,
            "count" : 192,
            "max" : [
                81.78128051757812,
                1.016364336013794,
                81.78129577636719
            ],
            "min" : [
                -81.78128051757812,
                -1.016364336013794,
                -81.78129577636719
            ],
            "type" : "VEC3"
        },
        {
            "bufferView" : 9,
            "componentType" : 5126,
            "count" : 192,
            "type" : "VEC3"
        },
        {
            "bufferView" : 10,
            "componentType" : 5123,
            "count" : 1050,
            "type" : "SCALAR"
        }
    ],
    "bufferViews" : [
        {
            "buffer" : 0,
            "byteLength" : 384,
            "byteOffset" : 0
        },
        {
            "buffer" : 0,
            "byteLength" : 384,
            "byteOffset" : 384
        },
        {
            "buffer" : 0,
            "byteLength" : 256,
            "byteOffset" : 768
        },
        {
            "buffer" : 0,
            "byteLength" : 180,
            "byteOffset" : 1024
        },
        {
            "buffer" : 0,
            "byteLength" : 683379,
            "byteOffset" : 1204
        },
        {
            "buffer" : 0,
            "byteLength" : 39984,
            "byteOffset" : 684584
        },
        {
            "buffer" : 0,
            "byteLength" : 39984,
            "byteOffset" : 724568
        },
        {
            "buffer" : 0,
            "byteLength" : 39408,
            "byteOffset" : 764552
        },
        {
            "buffer" : 0,
            "byteLength" : 2304,
            "byteOffset" : 803960
        },
        {
            "buffer" : 0,
            "byteLength" : 2304,
            "byteOffset" : 806264
        },
        {
            "buffer" : 0,
            "byteLength" : 2100,
            "byteOffset" : 808568
        }
    ],
    "buffers" : [
        {
            "byteLength" : 810668,
            "uri" : "data:application/octet-stream;base64,"
        }
    ]
}
