{
    "asset" : {
        "generator" : "Khronos glTF Blender I/O v1.1.45",
        "version" : "2.0"
    },
    "scene" : 0,
    "scenes" : [
        {
            "name" : "Scene",
            "nodes" : [
                4
            ]
        }
    ],
    "nodes" : [
        {
            "mesh" : 0,
            "name" : "defaultMaterial"
        },
        {
            "children" : [
                0
            ],
            "name" : "Chair"
        },
        {
            "children" : [
                1
            ],
            "name" : "Collada visual scene group",
            "rotation" : [
                0.7071068286895752,
                0,
                0,
                0.7071068286895752
            ]
        },
        {
            "children" : [
                2
            ],
            "name" : "RootNode (model correction matrix)"
        },
        {
            "children" : [
                3
            ],
            "name" : "RootNode (gltf orientation matrix)",
            "scale" : [
                0.8200000524520874,
                0.7400002479553223,
                0.8300002217292786
            ]
        }
    ],
    "materials" : [
        {
            "doubleSided" : true,
            "emissiveFactor" : [
                0,
                0,
                0
            ],
            "name" : "01___Default",
            "normalTexture" : {
                "index" : 0,
                "texCoord" : 0
            },
            "pbrMetallicRoughness" : {
                "baseColorFactor" : [
                    0.4830625057220459,
                    0.4830625057220459,
                    0.4830625057220459,
                    1
                ],
                "baseColorTexture" : {
                    "index" : 1,
                    "texCoord" : 0
                },
                "metallicRoughnessTexture" : {
                    "index" : 2,
                    "texCoord" : 0
                }
            }
        }
    ],
    "meshes" : [
        {
            "name" : "defaultMaterial",
            "primitives" : [
                {
                    "attributes" : {
                        "POSITION" : 0,
                        "NORMAL" : 1,
                        "TEXCOORD_0" : 2
                    },
                    "indices" : 3,
                    "material" : 0
                }
            ]
        }
    ],
    "textures" : [
        {
            "source" : 0
        },
        {
            "source" : 1
        },
        {
            "source" : 2
        }
    ],
    "images" : [
        {
            "mimeType" : "image/png",
            "name" : "01___Default_normal",
            "uri" : "01___Default_normal.png"
        },
        {
            "mimeType" : "image/png",
            "name" : "01___Default_baseColor",
            "uri" : "01___Default_baseColor.png"
        },
        {
            "mimeType" : "image/png",
            "name" : "01___Default_metallicRoughness",
            "uri" : "01___Default_metallicRoughness.png"
        }
    ],
    "accessors" : [
        {
            "bufferView" : 0,
            "componentType" : 5126,
            "count" : 3201,
            "max" : [
                0.5688599944114685,
                0.5641300082206726,
                1
            ],
            "min" : [
                -0.5688599944114685,
                -0.5641289949417114,
                -1
            ],
            "type" : "VEC3"
        },
        {
            "bufferView" : 1,
            "componentType" : 5126,
            "count" : 3201,
            "type" : "VEC3"
        },
        {
            "bufferView" : 2,
            "componentType" : 5126,
            "count" : 3201,
            "type" : "VEC2"
        },
        {
            "bufferView" : 3,
            "componentType" : 5123,
            "count" : 7596,
            "type" : "SCALAR"
        }
    ],
    "bufferViews" : [
        {
            "buffer" : 0,
            "byteLength" : 38412,
            "byteOffset" : 0
        },
        {
            "buffer" : 0,
            "byteLength" : 38412,
            "byteOffset" : 38412
        },
        {
            "buffer" : 0,
            "byteLength" : 25608,
            "byteOffset" : 76824
        },
        {
            "buffer" : 0,
            "byteLength" : 15192,
            "byteOffset" : 102432
        }
    ],
    "buffers" : [
        {
            "byteLength" : 117624,
            "uri" : "chair2.bin"
        }
    ]
}
