{
  "accessors": [
    {
      "bufferView": 2,
      "componentType": 5126,
      "count": 52189,
      "max": [
        171.68359375,
        117.54499816894531,
        84.198623657226562
      ],
      "min": [
        -171.68359375,
        -117.54499816894531,
        15.822669982910156
      ],
      "type": "VEC3"
    },
    {
      "bufferView": 2,
      "byteOffset": 626268,
      "componentType": 5126,
      "count": 52189,
      "max": [
        1,
        1,
        1
      ],
      "min": [
        -1,
        -1,
        -1
      ],
      "type": "VEC3"
    },
    {
      "bufferView": 3,
      "componentType": 5126,
      "count": 52189,
      "max": [
        1,
        1,
        0.9999997615814209,
        1
      ],
      "min": [
        -1,
        -1,
        -0.99999970197677612,
        -1
      ],
      "type": "VEC4"
    },
    {
      "bufferView": 1,
      "componentType": 5126,
      "count": 52189,
      "max": [
        0.98104208707809448,
        0.99949997663497925
      ],
      "min": [
        0.00050000002374872565,
        0.00050000002374872565
      ],
      "type": "VEC2"
    },
    {
      "bufferView": 1,
      "byteOffset": 417512,
      "componentType": 5126,
      "count": 52189,
      "max": [
        0.98104208707809448,
        0.99949997663497925
      ],
      "min": [
        0.00050000002374872565,
        0.00050000002374872565
      ],
      "type": "VEC2"
    },
    {
      "bufferView": 1,
      "byteOffset": 835024,
      "componentType": 5126,
      "count": 52189,
      "max": [
        17.960329055786133,
        17.914800643920898
      ],
      "min": [
        0.028417559340596199,
        0.032335720956325531
      ],
      "type": "VEC2"
    },
    {
      "bufferView": 1,
      "byteOffset": 1252536,
      "componentType": 5126,
      "count": 52189,
      "max": [
        0.98104208707809448,
        0.99949997663497925
      ],
      "min": [
        0.00050000002374872565,
        0.00050000002374872565
      ],
      "type": "VEC2"
    },
    {
      "bufferView": 1,
      "byteOffset": 1670048,
      "componentType": 5126,
      "count": 52189,
      "max": [
        0.98104208707809448,
        0.99949997663497925
      ],
      "min": [
        0.00050000002374872565,
        0.00050000002374872565
      ],
      "type": "VEC2"
    },
    {
      "bufferView": 1,
      "byteOffset": 2087560,
      "componentType": 5126,
      "count": 52189,
      "max": [
        0.98104208707809448,
        0.99949997663497925
      ],
      "min": [
        0.00050000002374872565,
        0.00050000002374872565
      ],
      "type": "VEC2"
    },
    {
      "bufferView": 1,
      "byteOffset": 2505072,
      "componentType": 5126,
      "count": 52189,
      "max": [
        0.98104208707809448,
        0.99949997663497925
      ],
      "min": [
        0.00050000002374872565,
        0.00050000002374872565
      ],
      "type": "VEC2"
    },
    {
      "bufferView": 1,
      "byteOffset": 2922584,
      "componentType": 5126,
      "count": 52189,
      "max": [
        0.98104208707809448,
        0.99949997663497925
      ],
      "min": [
        0.00050000002374872565,
        0.00050000002374872565
      ],
      "type": "VEC2"
    },
    {
      "bufferView": 1,
      "byteOffset": 3340096,
      "componentType": 5126,
      "count": 52189,
      "max": [
        0.98104208707809448,
        0.99949997663497925
      ],
      "min": [
        0.00050000002374872565,
        0.00050000002374872565
      ],
      "type": "VEC2"
    },
    {
      "bufferView": 1,
      "byteOffset": 3757608,
      "componentType": 5126,
      "count": 52189,
      "max": [
        0.98104208707809448,
        0.99949997663497925
      ],
      "min": [
        0.00050000002374872565,
        0.00050000002374872565
      ],
      "type": "VEC2"
    },
    {
      "bufferView": 0,
      "componentType": 5125,
      "count": 288480,
      "max": [
        52188
      ],
      "min": [
        0
      ],
      "type": "SCALAR"
    },
    {
      "bufferView": 2,
      "byteOffset": 1252536,
      "componentType": 5126,
      "count": 4206,
      "max": [
        164.91690063476562,
        116.02220153808594,
        16.119489669799805
      ],
      "min": [
        -167.96110534667969,
        -109.25150299072266,
        -0.13928790390491486
      ],
      "type": "VEC3"
    },
    {
      "bufferView": 2,
      "byteOffset": 1303008,
      "componentType": 5126,
      "count": 4206,
      "max": [
        1,
        1,
        1
      ],
      "min": [
        -1,
        -1,
        -1
      ],
      "type": "VEC3"
    },
    {
      "bufferView": 3,
      "byteOffset": 835024,
      "componentType": 5126,
      "count": 4206,
      "max": [
        1,
        1,
        1,
        1
      ],
      "min": [
        -1,
        -1,
        -1,
        1
      ],
      "type": "VEC4"
    },
    {
      "bufferView": 1,
      "byteOffset": 4175120,
      "componentType": 5126,
      "count": 4206,
      "max": [
        0.99039721488952637,
        0.9836801290512085
      ],
      "min": [
        0.0005000049713999033,
        0.00050000002374872565
      ],
      "type": "VEC2"
    },
    {
      "bufferView": 1,
      "byteOffset": 4208768,
      "componentType": 5126,
      "count": 4206,
      "max": [
        0.99039721488952637,
        0.9836801290512085
      ],
      "min": [
        0.0005000049713999033,
        0.00050000002374872565
      ],
      "type": "VEC2"
    },
    {
      "bufferView": 1,
      "byteOffset": 4242416,
      "componentType": 5126,
      "count": 4206,
      "max": [
        21.373519897460938,
        17.895790100097656
      ],
      "min": [
        19.828279495239258,
        15.992650032043457
      ],
      "type": "VEC2"
    },
    {
      "bufferView": 1,
      "byteOffset": 4276064,
      "componentType": 5126,
      "count": 4206,
      "max": [
        0.99039721488952637,
        0.9836801290512085
      ],
      "min": [
        0.0005000049713999033,
        0.00050000002374872565
      ],
      "type": "VEC2"
    },
    {
      "bufferView": 1,
      "byteOffset": 4309712,
      "componentType": 5126,
      "count": 4206,
      "max": [
        0.99039721488952637,
        0.9836801290512085
      ],
      "min": [
        0.0005000049713999033,
        0.00050000002374872565
      ],
      "type": "VEC2"
    },
    {
      "bufferView": 1,
      "byteOffset": 4343360,
      "componentType": 5126,
      "count": 4206,
      "max": [
        0.99039721488952637,
        0.9836801290512085
      ],
      "min": [
        0.0005000049713999033,
        0.00050000002374872565
      ],
      "type": "VEC2"
    },
    {
      "bufferView": 1,
      "byteOffset": 4377008,
      "componentType": 5126,
      "count": 4206,
      "max": [
        0.99039721488952637,
        0.9836801290512085
      ],
      "min": [
        0.0005000049713999033,
        0.00050000002374872565
      ],
      "type": "VEC2"
    },
    {
      "bufferView": 1,
      "byteOffset": 4410656,
      "componentType": 5126,
      "count": 4206,
      "max": [
        0.99039721488952637,
        0.9836801290512085
      ],
      "min": [
        0.0005000049713999033,
        0.00050000002374872565
      ],
      "type": "VEC2"
    },
    {
      "bufferView": 1,
      "byteOffset": 4444304,
      "componentType": 5126,
      "count": 4206,
      "max": [
        0.99039721488952637,
        0.9836801290512085
      ],
      "min": [
        0.0005000049713999033,
        0.00050000002374872565
      ],
      "type": "VEC2"
    },
    {
      "bufferView": 1,
      "byteOffset": 4477952,
      "componentType": 5126,
      "count": 4206,
      "max": [
        0.99039721488952637,
        0.9836801290512085
      ],
      "min": [
        0.0005000049713999033,
        0.00050000002374872565
      ],
      "type": "VEC2"
    },
    {
      "bufferView": 0,
      "byteOffset": 1153920,
      "componentType": 5125,
      "count": 7920,
      "max": [
        4205
      ],
      "min": [
        0
      ],
      "type": "SCALAR"
    },
    {
      "bufferView": 2,
      "byteOffset": 1353480,
      "componentType": 5126,
      "count": 25,
      "max": [
        334.05780029296875,
        334.05780029296875,
        0
      ],
      "min": [
        -334.05780029296875,
        -334.05780029296875,
        0
      ],
      "type": "VEC3"
    },
    {
      "bufferView": 2,
      "byteOffset": 1353780,
      "componentType": 5126,
      "count": 25,
      "max": [
        0,
        0,
        1
      ],
      "min": [
        0,
        0,
        1
      ],
      "type": "VEC3"
    },
    {
      "bufferView": 3,
      "byteOffset": 902320,
      "componentType": 5126,
      "count": 25,
      "max": [
        1,
        0,
        0,
        1
      ],
      "min": [
        1,
        0,
        0,
        1
      ],
      "type": "VEC4"
    },
    {
      "bufferView": 1,
      "byteOffset": 4511600,
      "componentType": 5126,
      "count": 25,
      "max": [
        1,
        1
      ],
      "min": [
        0,
        0
      ],
      "type": "VEC2"
    },
    {
      "bufferView": 0,
      "byteOffset": 1185600,
      "componentType": 5125,
      "count": 96,
      "max": [
        24
      ],
      "min": [
        0
      ],
      "type": "SCALAR"
    }
  ],
  "asset": {
    "extras": {
      "author": "MADE.COM (https://sketchfab.com/made-it)",
      "license": "CC-BY-NC-4.0 (http://creativecommons.org/licenses/by-nc/4.0/)",
      "source": "https://sketchfab.com/3d-models/monterosso-left-hand-corner-sofa-oyster-grey-b7085496ffbf4afeba1487abee9949e6",
      "title": "Monterosso Left Hand Corner Sofa Oyster Grey"
    },
    "generator": "Sketchfab-4.47.0",
    "version": "2.0"
  },
  "bufferViews": [
    {
      "buffer": 0,
      "byteLength": 1185984,
      "byteOffset": 0,
      "name": "floatBufferViews",
      "target": 34963
    },
    {
      "buffer": 0,
      "byteLength": 4511800,
      "byteOffset": 1185984,
      "byteStride": 8,
      "name": "floatBufferViews",
      "target": 34962
    },
    {
      "buffer": 0,
      "byteLength": 1354080,
      "byteOffset": 5697784,
      "byteStride": 12,
      "name": "floatBufferViews",
      "target": 34962
    },
    {
      "buffer": 0,
      "byteLength": 902720,
      "byteOffset": 7051864,
      "byteStride": 16,
      "name": "floatBufferViews",
      "target": 34962
    }
  ],
  "buffers": [
    {
      "byteLength": 7954584,
      "uri": "scene.bin"
    }
  ],
  "images": [
    {
      "uri": "textures/Floor_baseColor.png"
    },
    {
      "uri": "textures/CHROME_metallicRoughness.png"
    },
    {
      "uri": "textures/FABRIC_metallicRoughness.png"
    },
    {
      "uri": "textures/FABRIC_baseColor.png"
    }
  ],
  "materials": [
    {
      "doubleSided": true,
      "emissiveFactor": [
        0,
        0,
        0
      ],
      "name": "FABRIC",
      "occlusionTexture": {
        "index": 2,
        "strength": 0.66837121209999995,
        "texCoord": 0
      },
      "pbrMetallicRoughness": {
        "baseColorFactor": [
          1,
          1,
          1,
          1
        ],
        "baseColorTexture": {
          "index": 3,
          "texCoord": 0
        },
        "metallicFactor": 0,
        "roughnessFactor": 1
      }
    },
    {
      "doubleSided": true,
      "emissiveFactor": [
        0,
        0,
        0
      ],
      "name": "CHROME",
      "occlusionTexture": {
        "index": 1,
        "strength": 1,
        "texCoord": 0
      },
      "pbrMetallicRoughness": {
        "baseColorFactor": [
          0.2806968849,
          0.2806968849,
          0.2806968849,
          1
        ],
        "metallicFactor": 1,
        "roughnessFactor": 0.1053734756
      }
    },
    {
      "alphaMode": "BLEND",
      "doubleSided": true,
      "emissiveFactor": [
        0,
        0,
        0
      ],
      "name": "Floor",
      "pbrMetallicRoughness": {
        "baseColorFactor": [
          0,
          0,
          0,
          1
        ],
        "baseColorTexture": {
          "index": 0,
          "texCoord": 0
        },
        "metallicFactor": 0,
        "roughnessFactor": 1
      }
    }
  ],
  "meshes": [
    {
      "name": "Monterosso_Left_Hand_Facing_Corner_Sofa_FABRIC_0",
      "primitives": [
        {
          "attributes": {
            "NORMAL": 1,
            "POSITION": 0,
            "TANGENT": 2,
            "TEXCOORD_0": 3,
            "TEXCOORD_1": 4,
            "TEXCOORD_2": 5,
            "TEXCOORD_3": 6,
            "TEXCOORD_4": 7,
            "TEXCOORD_5": 8,
            "TEXCOORD_6": 9,
            "TEXCOORD_7": 10,
            "TEXCOORD_8": 11,
            "TEXCOORD_9": 12
          },
          "indices": 13,
          "material": 0,
          "mode": 4
        }
      ]
    },
    {
      "name": "Monterosso_Left_Hand_Facing_Corner_Sofa_CHROME_0",
      "primitives": [
        {
          "attributes": {
            "NORMAL": 15,
            "POSITION": 14,
            "TANGENT": 16,
            "TEXCOORD_0": 17,
            "TEXCOORD_1": 18,
            "TEXCOORD_2": 19,
            "TEXCOORD_3": 20,
            "TEXCOORD_4": 21,
            "TEXCOORD_5": 22,
            "TEXCOORD_6": 23,
            "TEXCOORD_7": 24,
            "TEXCOORD_8": 25,
            "TEXCOORD_9": 26
          },
          "indices": 27,
          "material": 1,
          "mode": 4
        }
      ]
    },
    {
      "name": "Plane002_Floor_0",
      "primitives": [
        {
          "attributes": {
            "NORMAL": 29,
            "POSITION": 28,
            "TANGENT": 30,
            "TEXCOORD_0": 31
          },
          "indices": 32,
          "material": 2,
          "mode": 4
        }
      ]
    }
  ],
  "nodes": [
    {
      "children": [
        1
      ],
      "name": "RootNode (gltf orientation matrix)",
      "rotation": [
        -0.70710678118654746,
        -0,
        -0,
        0.70710678118654757
      ]
    },
    {
      "children": [
        2
      ],
      "name": "RootNode (model correction matrix)"
    },
    {
      "children": [
        3
      ],
      "matrix": [
        1,
        0,
        0,
        0,
        0,
        0,
        1,
        0,
        0,
        -1,
        0,
        0,
        0,
        0,
        0,
        1
      ],
      "name": "ece561b3fd8d40518d2a52a65bb7092b.fbx"
    },
    {
      "children": [
        4,
        7
      ],
      "name": "RootNode"
    },
    {
      "children": [
        5,
        6
      ],
      "matrix": [
        1,
        0,
        0,
        0,
        0,
        2.2204460492503131e-16,
        -1,
        0,
        0,
        1,
        2.2204460492503131e-16,
        0,
        0,
        0,
        0,
        1
      ],
      "name": "Monterosso_Left_Hand_Facing_Corner_Sofa"
    },
    {
      "mesh": 0,
      "name": "Monterosso_Left_Hand_Facing_Corner_Sofa_FABRIC_0"
    },
    {
      "mesh": 1,
      "name": "Monterosso_Left_Hand_Facing_Corner_Sofa_CHROME_0"
    },
    {
      "children": [
        8
      ],
      "matrix": [
        1,
        0,
        0,
        0,
        0,
        2.2204460492503131e-16,
        -1,
        0,
        0,
        1,
        2.2204460492503131e-16,
        0,
        0,
        0,
        0,
        1
      ],
      "name": "Plane002"
    },
    {
      "mesh": 2,
      "name": "Plane002_Floor_0"
    }
  ],
  "samplers": [
    {
      "magFilter": 9729,
      "minFilter": 9987,
      "wrapS": 10497,
      "wrapT": 10497
    }
  ],
  "scene": 0,
  "scenes": [
    {
      "name": "OSG_Scene",
      "nodes": [
        0
      ]
    }
  ],
  "textures": [
    {
      "sampler": 0,
      "source": 0
    },
    {
      "sampler": 0,
      "source": 1
    },
    {
      "sampler": 0,
      "source": 2
    },
    {
      "sampler": 0,
      "source": 3
    }
  ]
}

