{
    "asset" : {
        "generator" : "Khronos glTF Blender I/O v1.1.45",
        "version" : "2.0"
    },
    "scene" : 0,
    "scenes" : [
        {
            "name" : "Scene",
            "nodes" : [
                11
            ]
        }
    ],
    "nodes" : [
        {
            "mesh" : 0,
            "name" : "Plane001_3DSHARE STUDIO_0"
        },
        {
            "children" : [
                0
            ],
            "name" : "Plane001",
            "rotation" : [
                -0.7071068286895752,
                0,
                0,
                0.7071068286895752
            ],
            "scale" : [
                3.962526798248291,
                5.431221008300781,
                2.4466359615325928
            ],
            "translation" : [
                2.7437286376953125,
                25.675521850585938,
                0.0001817337906686589
            ]
        },
        {
            "mesh" : 1,
            "name" : "Tricani Sofa_skinn_01_0"
        },
        {
            "children" : [
                2
            ],
            "name" : "Node",
            "translation" : [
                -309.685302734375,
                29.0144100189209,
                824.36962890625
            ]
        },
        {
            "children" : [
                3
            ],
            "name" : "Tricani Sofa",
            "scale" : [
                0.10000000149011612,
                0.10000000149011612,
                0.10000000149011612
            ],
            "translation" : [
                3.0425796508789062,
                26.389904022216797,
                -46.114906311035156
            ]
        },
        {
            "mesh" : 2,
            "name" : "Wood_Material #33_0"
        },
        {
            "children" : [
                5
            ],
            "name" : "Node.001",
            "translation" : [
                -309.685302734375,
                29.0144100189209,
                824.36962890625
            ]
        },
        {
            "children" : [
                6
            ],
            "name" : "Wood",
            "scale" : [
                0.10000000149011612,
                0.10000000149011612,
                0.10000000149011612
            ],
            "translation" : [
                3.0425796508789062,
                26.389904022216797,
                -46.114906311035156
            ]
        },
        {
            "children" : [
                1,
                4,
                7
            ],
            "name" : "RootNode"
        },
        {
            "children" : [
                8
            ],
            "name" : "Trescani.FBX",
            "rotation" : [
                0.7071068286895752,
                0,
                0,
                0.7071068286895752
            ]
        },
        {
            "children" : [
                9
            ],
            "name" : "RootNode (model correction matrix)"
        },
        {
            "children" : [
                10
            ],
            "name" : "RootNode (gltf orientation matrix)",
            "scale" : [
                2.5679116249084473,
                2.4151933193206787,
                2.4151933193206787
            ]
        }
    ],
    "materials" : [
        {
            "alphaMode" : "BLEND",
            "doubleSided" : true,
            "emissiveFactor" : [
                0,
                0,
                0
            ],
            "name" : "3DSHARE_STUDIO",
            "pbrMetallicRoughness" : {
                "baseColorFactor" : [
                    1,
                    1,
                    1,
                    0.8399999737739563
                ],
                "baseColorTexture" : {
                    "index" : 0,
                    "texCoord" : 0
                },
                "metallicFactor" : 0,
                "roughnessFactor" : 0.6000000238418579
            }
        },
        {
            "doubleSided" : true,
            "emissiveFactor" : [
                0,
                0,
                0
            ],
            "name" : "skinn_01",
            "pbrMetallicRoughness" : {
                "baseColorFactor" : [
                    0.9411770105361938,
                    0.9058820009231567,
                    0.8352940082550049,
                    1
                ],
                "metallicFactor" : 0,
                "roughnessFactor" : 0.6000000238418579
            }
        },
        {
            "doubleSided" : true,
            "emissiveFactor" : [
                0,
                0,
                0
            ],
            "name" : "Material_33",
            "pbrMetallicRoughness" : {
                "baseColorTexture" : {
                    "index" : 1,
                    "texCoord" : 0
                },
                "metallicFactor" : 0,
                "roughnessFactor" : 0.10000000149011612
            }
        }
    ],
    "meshes" : [
        {
            "name" : "Plane001_3DSHARE STUDIO_0",
            "primitives" : [
                {
                    "attributes" : {
                        "POSITION" : 0,
                        "NORMAL" : 1,
                        "TEXCOORD_0" : 2
                    },
                    "indices" : 3,
                    "material" : 0
                }
            ]
        },
        {
            "name" : "Tricani Sofa_skinn_01_0",
            "primitives" : [
                {
                    "attributes" : {
                        "POSITION" : 4,
                        "NORMAL" : 5
                    },
                    "indices" : 6,
                    "material" : 1
                }
            ]
        },
        {
            "name" : "Wood_Material #33_0",
            "primitives" : [
                {
                    "attributes" : {
                        "POSITION" : 7,
                        "NORMAL" : 8,
                        "TEXCOORD_0" : 9
                    },
                    "indices" : 10,
                    "material" : 2
                }
            ]
        }
    ],
    "textures" : [
        {
            "source" : 0
        },
        {
            "source" : 1
        }
    ],
    "images" : [
        {
            "bufferView" : 4,
            "mimeType" : "image/png",
            "name" : "3DSHARE_STUDIO_baseColor"
        },
        {
            "bufferView" : 12,
            "mimeType" : "image/png",
            "name" : "Material_33_baseColor"
        }
    ],
    "accessors" : [
        {
            "bufferView" : 0,
            "componentType" : 5126,
            "count" : 4,
            "max" : [
                40.25157165527344,
                0,
                29.140460968017578
            ],
            "min" : [
                -40.25157165527344,
                0,
                -29.140460968017578
            ],
            "type" : "VEC3"
        },
        {
            "bufferView" : 1,
            "componentType" : 5126,
            "count" : 4,
            "type" : "VEC3"
        },
        {
            "bufferView" : 2,
            "componentType" : 5126,
            "count" : 4,
            "type" : "VEC2"
        },
        {
            "bufferView" : 3,
            "componentType" : 5123,
            "count" : 6,
            "type" : "SCALAR"
        },
        {
            "bufferView" : 5,
            "componentType" : 5126,
            "count" : 42807,
            "max" : [
                1459.63818359375,
                411.9040222167969,
                -363.2204895019531
            ],
            "min" : [
                -840.2677001953125,
                -469.932861328125,
                -1317.859619140625
            ],
            "type" : "VEC3"
        },
        {
            "bufferView" : 6,
            "componentType" : 5126,
            "count" : 42807,
            "type" : "VEC3"
        },
        {
            "bufferView" : 7,
            "componentType" : 5123,
            "count" : 216528,
            "type" : "SCALAR"
        },
        {
            "bufferView" : 8,
            "componentType" : 5126,
            "count" : 14419,
            "max" : [
                1443.094970703125,
                389.0639343261719,
                -379.7697448730469
            ],
            "min" : [
                -823.724609375,
                359.75238037109375,
                -1203.21142578125
            ],
            "type" : "VEC3"
        },
        {
            "bufferView" : 9,
            "componentType" : 5126,
            "count" : 14419,
            "type" : "VEC3"
        },
        {
            "bufferView" : 10,
            "componentType" : 5126,
            "count" : 14419,
            "type" : "VEC2"
        },
        {
            "bufferView" : 11,
            "componentType" : 5123,
            "count" : 43038,
            "type" : "SCALAR"
        }
    ],
    "bufferViews" : [
        {
            "buffer" : 0,
            "byteLength" : 48,
            "byteOffset" : 0
        },
        {
            "buffer" : 0,
            "byteLength" : 48,
            "byteOffset" : 48
        },
        {
            "buffer" : 0,
            "byteLength" : 32,
            "byteOffset" : 96
        },
        {
            "buffer" : 0,
            "byteLength" : 12,
            "byteOffset" : 128
        },
        {
            "buffer" : 0,
            "byteLength" : 28437,
            "byteOffset" : 140
        },
        {
            "buffer" : 0,
            "byteLength" : 513684,
            "byteOffset" : 28580
        },
        {
            "buffer" : 0,
            "byteLength" : 513684,
            "byteOffset" : 542264
        },
        {
            "buffer" : 0,
            "byteLength" : 433056,
            "byteOffset" : 1055948
        },
        {
            "buffer" : 0,
            "byteLength" : 173028,
            "byteOffset" : 1489004
        },
        {
            "buffer" : 0,
            "byteLength" : 173028,
            "byteOffset" : 1662032
        },
        {
            "buffer" : 0,
            "byteLength" : 115352,
            "byteOffset" : 1835060
        },
        {
            "buffer" : 0,
            "byteLength" : 86076,
            "byteOffset" : 1950412
        },
        {
            "buffer" : 0,
            "byteLength" : 691501,
            "byteOffset" : 2036488
        }
    ],
    "buffers" : [
        {
            "byteLength" : 2727992,
            "uri" : "data:application/octet-stream;base64,"
        }
    ]
}
